<svg version="1.1" id="Layer_1" xmlns="http://www.w3.org/2000/svg" xmlns:xlink="http://www.w3.org/1999/xlink" x="0px" y="0px"
	 width="100%" viewBox="0 0 1330 208" enable-background="new 0 0 1330 208" xml:space="preserve">
<path fill="#FEFEFE" opacity="1.000000" stroke="none" 
	d="
M1010.000000,209.000000 
	C673.333313,209.000000 337.166656,209.000000 1.000000,209.000000 
	C1.000000,139.666672 1.000000,70.333336 1.000000,1.000000 
	C444.333344,1.000000 887.666687,1.000000 1331.000000,1.000000 
	C1331.000000,70.333336 1331.000000,139.666672 1331.000000,209.000000 
	C1224.166626,209.000000 1117.333374,209.000000 1010.000000,209.000000 
M1154.781372,104.737701 
	C1150.526245,92.681862 1146.125488,80.674232 1142.108154,68.539658 
	C1140.962769,65.080246 1139.334961,63.993427 1135.767334,64.127937 
	C1128.114136,64.416481 1120.436523,64.394035 1112.781250,64.134048 
	C1109.449951,64.020920 1107.943970,64.949203 1106.774048,68.242867 
	C1097.661011,93.901611 1088.298096,119.471626 1078.998047,145.063812 
	C1078.462158,146.538483 1077.800049,147.967300 1076.816162,150.332275 
	C1075.951904,147.871277 1075.427368,146.383270 1074.906616,144.893967 
	C1065.975220,119.345955 1057.066772,93.789909 1048.056396,68.269844 
	C1047.528931,66.775955 1046.204956,64.433868 1045.204468,64.409370 
	C1033.945679,64.133690 1022.677795,64.234917 1010.706665,64.234917 
	C1026.445801,107.944298 1041.932251,150.952179 1057.393799,193.890778 
	C1069.805542,193.890778 1081.779297,193.890778 1094.033691,193.890778 
	C1103.804199,167.781281 1113.572998,141.676285 1123.656128,114.731339 
	C1133.397217,141.604202 1142.877441,167.757751 1152.352783,193.897369 
	C1164.660034,193.897369 1176.642334,193.897369 1188.979004,193.897369 
	C1204.520752,150.957169 1220.085083,107.954849 1235.915771,64.216423 
	C1225.418213,64.216423 1215.810303,64.347878 1206.209595,64.141739 
	C1203.051636,64.073936 1201.658203,64.981438 1200.568726,68.090157 
	C1192.826172,90.180496 1184.831055,112.182358 1176.899048,134.206161 
	C1175.068848,139.288116 1173.171509,144.345871 1170.851685,150.645828 
	C1165.265991,134.748917 1160.127563,120.124649 1154.781372,104.737701 
M406.146851,184.397934 
	C432.805939,200.065948 458.916504,201.449829 484.692566,181.054306 
	C484.692566,185.444168 484.692566,189.512650 484.692566,193.624374 
	C497.058441,193.624374 508.932068,193.624374 520.574585,193.624374 
	C520.574585,134.023865 520.574585,74.800255 520.574585,15.529237 
	C507.917603,15.529237 495.662262,15.529237 482.813354,15.529237 
	C482.813354,35.978008 482.813354,56.137638 482.813354,76.604790 
	C479.498962,74.109711 476.849304,71.816971 473.921631,69.963364 
	C462.051758,62.448154 448.885315,61.426899 435.409271,63.015900 
	C419.643219,64.874924 406.073761,71.323120 395.564453,83.524979 
	C382.973694,98.143524 379.042572,115.465729 380.072418,134.217056 
	C381.188629,154.540527 388.901886,171.581833 406.146851,184.397934 
M973.809387,73.664909 
	C951.976807,60.509232 928.717285,59.023041 905.147400,67.060310 
	C859.116272,82.756844 851.471191,134.986801 872.043518,165.861679 
	C886.424927,187.445328 907.868591,195.719711 932.895569,195.863373 
	C971.949890,196.087585 1002.517212,170.058487 1003.494141,131.823196 
	C1004.117859,107.412682 995.020996,87.811714 973.809387,73.664909 
M603.500549,140.001968 
	C629.286438,140.001968 655.072327,140.001968 680.740845,140.001968 
	C685.258850,116.674995 676.727539,92.149643 659.024719,77.384506 
	C647.338074,67.637222 633.618164,63.330868 618.520203,62.629009 
	C600.207825,61.777721 583.394226,65.902191 569.127319,77.693443 
	C551.235352,92.480812 544.085938,111.882965 545.776062,134.855316 
	C547.460083,157.744308 558.038513,175.213226 578.211060,185.980194 
	C601.667419,198.499817 626.309692,199.179855 651.162292,190.256073 
	C659.695862,187.191971 667.032593,182.041199 672.794250,174.441055 
	C666.009521,167.092697 659.395752,159.929565 652.795593,152.781128 
	C637.463257,166.166641 621.919373,166.500793 609.035217,163.949921 
	C596.301697,161.428848 585.801636,151.191223 584.502563,140.001968 
	C590.520874,140.001968 596.510864,140.001968 603.500549,140.001968 
M305.649750,191.303452 
	C310.469391,187.812531 315.289032,184.321609 320.236023,180.738434 
	C320.236023,184.917358 320.236023,189.339905 320.236023,193.759399 
	C332.172791,193.759399 343.755157,193.759399 355.753876,193.759399 
	C355.753876,187.067917 355.809906,180.610962 355.743652,174.155289 
	C355.521515,152.511612 356.106537,130.815369 354.762421,109.240189 
	C353.471191,88.514481 342.466248,73.748352 322.330414,66.864914 
	C303.974457,60.589912 285.323700,61.341862 266.689270,65.522614 
	C256.121704,67.893509 246.122910,71.707703 237.206177,78.294250 
	C241.846802,87.306213 246.310440,95.974449 250.886688,104.861397 
	C252.258560,104.068443 253.255646,103.557373 254.185745,102.944649 
	C266.165588,95.052628 279.363190,92.006744 293.579620,93.048286 
	C308.551575,94.145172 318.032257,103.880310 316.955536,117.629173 
	C315.389771,117.629173 313.775055,117.615044 312.160645,117.631447 
	C300.670135,117.748184 289.131500,117.274933 277.705872,118.198143 
	C269.863953,118.831779 261.837646,120.515610 254.501389,123.319725 
	C242.534866,127.893646 234.918854,136.985382 233.154129,149.984436 
	C231.154114,164.716812 234.838882,177.769897 247.651306,186.375885 
	C265.611816,198.439774 285.095032,198.339935 305.649750,191.303452 
M738.463867,194.003708 
	C741.724976,194.003708 744.986023,194.003708 748.726807,194.003708 
	C748.726807,161.279968 748.726807,129.218643 748.726807,96.528305 
	C759.611084,96.528305 770.000793,96.528305 780.474854,96.528305 
	C780.474854,86.468895 780.474854,77.047348 780.474854,67.068970 
	C769.481812,67.068970 758.748596,67.068970 747.778015,67.068970 
	C747.632751,59.324989 746.844666,51.677601 753.604797,46.936119 
	C762.145691,40.945568 770.975830,43.668636 779.681335,48.127373 
	C783.036438,38.826374 786.287659,29.813375 789.584656,20.673584 
	C788.338745,19.921389 787.534302,19.356817 786.664734,18.922663 
	C775.029053,13.113129 762.621704,12.711187 750.089539,14.132462 
	C729.985107,16.412491 715.779114,29.443445 711.820740,49.288143 
	C710.691833,54.947464 710.574951,60.808647 709.925964,67.252533 
	C703.697144,67.252533 697.314148,67.252533 691.035950,67.252533 
	C691.035950,77.345276 691.035950,86.765457 691.035950,96.782265 
	C697.593872,96.782265 703.828247,96.782265 710.553833,96.782265 
	C710.553833,129.465256 710.553833,161.546799 710.553833,194.003708 
	C719.865967,194.003708 728.669495,194.003708 738.463867,194.003708 
M107.720535,87.409134 
	C107.720535,80.792885 107.720535,74.176628 107.720535,66.958008 
	C96.685486,66.958008 86.162949,66.958008 75.262115,66.958008 
	C75.262115,56.262859 75.262115,46.174961 75.262115,36.005478 
	C62.572220,36.005478 50.281387,36.005478 37.447746,36.005478 
	C37.447746,46.384060 37.447746,56.600071 37.447746,67.192627 
	C30.645462,67.192627 24.379002,67.192627 18.026953,67.192627 
	C18.026953,77.133537 18.026953,86.679771 18.026953,96.719971 
	C24.603510,96.719971 30.851618,96.719971 37.514751,96.719971 
	C37.514751,99.006828 37.500572,100.798973 37.516937,102.590828 
	C37.682697,120.739532 37.408119,138.907104 38.178017,157.030258 
	C38.698746,169.288040 43.739601,179.817078 54.181641,187.195145 
	C64.797882,194.696274 76.900558,196.204300 89.357140,195.757538 
	C99.050087,195.409897 108.475632,193.602203 116.839890,187.584930 
	C115.119385,182.969620 113.481575,178.480682 111.772667,174.018982 
	C110.084953,169.612625 108.325348,165.233780 106.606537,160.866379 
	C103.870056,162.122391 101.707436,163.442749 99.359650,164.137024 
	C87.947708,167.511780 75.577782,164.976837 75.548447,148.059555 
	C75.519844,131.570786 75.540306,115.081909 75.569939,98.593124 
	C75.570999,97.999702 75.898552,97.406868 76.207520,96.362015 
	C86.708427,96.362015 97.112633,96.362015 107.720528,96.362015 
	C107.720528,93.354057 107.720528,90.864693 107.720535,87.409134 
M836.977539,42.500000 
	C836.977539,33.562847 836.977539,24.625694 836.977539,15.556343 
	C824.076904,15.556343 811.686951,15.556343 799.305176,15.556343 
	C799.305176,75.165680 799.305176,134.495255 799.305176,193.648911 
	C812.023438,193.648911 824.413757,193.648911 836.977539,193.648911 
	C836.977539,143.365356 836.977539,93.432678 836.977539,42.500000 
M137.978088,171.499969 
	C137.978088,178.926956 137.978088,186.353958 137.978088,193.660126 
	C150.998962,193.660126 163.391586,193.660126 175.979034,193.660126 
	C175.979034,188.337860 175.969437,183.355545 175.980789,178.373276 
	C176.017578,162.216202 175.683304,146.047028 176.198227,129.905060 
	C176.859894,109.163139 188.630066,97.788704 209.221024,97.099907 
	C212.189529,97.000610 215.164215,97.086143 218.408295,97.086143 
	C218.408295,85.682739 218.408295,74.304718 218.408295,62.967896 
	C204.537521,61.066994 191.911804,65.792625 174.118835,79.588760 
	C174.118835,74.353706 174.118835,69.473602 174.118835,64.452126 
	C161.888367,64.452126 150.147476,64.452126 137.978088,64.452126 
	C137.978088,99.956268 137.978088,135.228119 137.978088,171.499969 
M1267.623901,56.433254 
	C1268.246338,57.889938 1269.359131,59.331020 1269.406128,60.806007 
	C1269.606201,67.095474 1269.491211,73.394966 1269.491211,79.636536 
	C1276.170898,79.636536 1282.372314,79.636536 1289.049805,79.636536 
	C1289.049805,71.684898 1289.049805,64.122314 1289.049805,56.232723 
	C1297.491577,56.232723 1305.445801,56.232723 1313.470947,56.232723 
	C1313.470947,50.308746 1313.470947,44.744740 1313.470947,38.711044 
	C1305.096436,38.711044 1297.020020,38.711044 1288.517212,38.711044 
	C1288.517212,30.644049 1288.517212,23.050556 1288.517212,15.508545 
	C1282.017700,15.508545 1275.969849,15.508545 1269.407104,15.508545 
	C1269.407104,23.423840 1269.407104,30.994062 1269.407104,39.111382 
	C1260.851440,39.111382 1252.803711,39.111382 1244.936768,39.111382 
	C1244.936768,45.128887 1244.936768,50.582561 1244.936768,56.412045 
	C1252.321899,56.412045 1259.462158,56.412045 1267.623901,56.433254 
M1244.692261,96.534531 
	C1244.692261,100.950729 1244.692261,105.366928 1244.692261,109.635666 
	C1268.065186,109.635666 1290.773193,109.635666 1313.406372,109.635666 
	C1313.406372,103.540405 1313.406372,97.817383 1313.406372,91.901871 
	C1291.233765,91.901871 1269.422241,91.979355 1247.612549,91.818352 
	C1244.339722,91.794197 1244.634155,93.504776 1244.692261,96.534531 
z"/>
<path fill="#020202" opacity="1.000000" stroke="none" 
	d="
M1154.885254,105.119049 
	C1160.127563,120.124649 1165.265991,134.748917 1170.851685,150.645828 
	C1173.171509,144.345871 1175.068848,139.288116 1176.899048,134.206161 
	C1184.831055,112.182358 1192.826172,90.180496 1200.568726,68.090157 
	C1201.658203,64.981438 1203.051636,64.073936 1206.209595,64.141739 
	C1215.810303,64.347878 1225.418213,64.216423 1235.915771,64.216423 
	C1220.085083,107.954849 1204.520752,150.957169 1188.979004,193.897369 
	C1176.642334,193.897369 1164.660034,193.897369 1152.352783,193.897369 
	C1142.877441,167.757751 1133.397217,141.604202 1123.656128,114.731339 
	C1113.572998,141.676285 1103.804199,167.781281 1094.033691,193.890778 
	C1081.779297,193.890778 1069.805542,193.890778 1057.393799,193.890778 
	C1041.932251,150.952179 1026.445801,107.944298 1010.706665,64.234917 
	C1022.677795,64.234917 1033.945679,64.133690 1045.204468,64.409370 
	C1046.204956,64.433868 1047.528931,66.775955 1048.056396,68.269844 
	C1057.066772,93.789909 1065.975220,119.345955 1074.906616,144.893967 
	C1075.427368,146.383270 1075.951904,147.871277 1076.816162,150.332275 
	C1077.800049,147.967300 1078.462158,146.538483 1078.998047,145.063812 
	C1088.298096,119.471626 1097.661011,93.901611 1106.774048,68.242867 
	C1107.943970,64.949203 1109.449951,64.020920 1112.781250,64.134048 
	C1120.436523,64.394035 1128.114136,64.416481 1135.767334,64.127937 
	C1139.334961,63.993427 1140.962769,65.080246 1142.108154,68.539658 
	C1146.125488,80.674232 1150.526245,92.681862 1154.885254,105.119049 
z"/>
<path fill="#BB4725" opacity="1.000000" stroke="none" 
	d="
M405.844727,184.203827 
	C388.901886,171.581833 381.188629,154.540527 380.072418,134.217056 
	C379.042572,115.465729 382.973694,98.143524 395.564453,83.524979 
	C406.073761,71.323120 419.643219,64.874924 435.409271,63.015900 
	C448.885315,61.426899 462.051758,62.448154 473.921631,69.963364 
	C476.849304,71.816971 479.498962,74.109711 482.813354,76.604790 
	C482.813354,56.137638 482.813354,35.978008 482.813354,15.529237 
	C495.662262,15.529237 507.917603,15.529237 520.574585,15.529237 
	C520.574585,74.800255 520.574585,134.023865 520.574585,193.624374 
	C508.932068,193.624374 497.058441,193.624374 484.692566,193.624374 
	C484.692566,189.512650 484.692566,185.444168 484.692566,181.054306 
	C458.916504,201.449829 432.805939,200.065948 405.844727,184.203827 
M470.903412,100.519974 
	C457.275787,90.602226 438.837646,91.788979 427.763580,103.527870 
	C419.083466,112.729073 417.599609,124.033432 418.945251,136.041962 
	C421.441711,158.319977 445.894897,171.380524 465.772888,161.039581 
	C487.039551,149.976196 490.097778,117.599670 470.903412,100.519974 
z"/>
<path fill="#020202" opacity="1.000000" stroke="none" 
	d="
M974.127319,73.840973 
	C995.020996,87.811714 1004.117859,107.412682 1003.494141,131.823196 
	C1002.517212,170.058487 971.949890,196.087585 932.895569,195.863373 
	C907.868591,195.719711 886.424927,187.445328 872.043518,165.861679 
	C851.471191,134.986801 859.116272,82.756844 905.147400,67.060310 
	C928.717285,59.023041 951.976807,60.509232 974.127319,73.840973 
M933.449097,164.473480 
	C940.605164,164.181732 947.194702,162.295746 952.796326,157.614883 
	C963.431946,148.727371 965.968628,136.890182 964.807556,123.870277 
	C962.688354,100.106987 938.162354,86.423599 917.503052,97.363297 
	C903.853882,104.590897 897.422363,120.698395 900.677612,137.649460 
	C903.433960,152.003006 915.213379,164.614243 933.449097,164.473480 
z"/>
<path fill="#DF9F3F" opacity="1.000000" stroke="none" 
	d="
M603.000732,140.001968 
	C596.510864,140.001968 590.520874,140.001968 584.502563,140.001968 
	C585.801636,151.191223 596.301697,161.428848 609.035217,163.949921 
	C621.919373,166.500793 637.463257,166.166641 652.795593,152.781128 
	C659.395752,159.929565 666.009521,167.092697 672.794250,174.441055 
	C667.032593,182.041199 659.695862,187.191971 651.162292,190.256073 
	C626.309692,199.179855 601.667419,198.499817 578.211060,185.980194 
	C558.038513,175.213226 547.460083,157.744308 545.776062,134.855316 
	C544.085938,111.882965 551.235352,92.480812 569.127319,77.693443 
	C583.394226,65.902191 600.207825,61.777721 618.520203,62.629009 
	C633.618164,63.330868 647.338074,67.637222 659.024719,77.384506 
	C676.727539,92.149643 685.258850,116.674995 680.740845,140.001968 
	C655.072327,140.001968 629.286438,140.001968 603.000732,140.001968 
M602.500732,117.705505 
	C616.768005,117.705505 631.035339,117.705505 645.350159,117.705505 
	C643.830627,102.168625 629.547974,90.431961 613.867065,91.318863 
	C597.342957,92.253456 583.805603,103.989937 584.228638,117.705086 
	C589.958557,117.705086 595.730042,117.705086 602.500732,117.705505 
z"/>
<path fill="#020202" opacity="1.000000" stroke="none" 
	d="
M305.321594,191.496704 
	C285.095032,198.339935 265.611816,198.439774 247.651306,186.375885 
	C234.838882,177.769897 231.154114,164.716812 233.154129,149.984436 
	C234.918854,136.985382 242.534866,127.893646 254.501389,123.319725 
	C261.837646,120.515610 269.863953,118.831779 277.705872,118.198143 
	C289.131500,117.274933 300.670135,117.748184 312.160645,117.631447 
	C313.775055,117.615044 315.389771,117.629173 316.955536,117.629173 
	C318.032257,103.880310 308.551575,94.145172 293.579620,93.048286 
	C279.363190,92.006744 266.165588,95.052628 254.185745,102.944649 
	C253.255646,103.557373 252.258560,104.068443 250.886688,104.861397 
	C246.310440,95.974449 241.846802,87.306213 237.206177,78.294250 
	C246.122910,71.707703 256.121704,67.893509 266.689270,65.522614 
	C285.323700,61.341862 303.974457,60.589912 322.330414,66.864914 
	C342.466248,73.748352 353.471191,88.514481 354.762421,109.240189 
	C356.106537,130.815369 355.521515,152.511612 355.743652,174.155289 
	C355.809906,180.610962 355.753876,187.067917 355.753876,193.759399 
	C343.755157,193.759399 332.172791,193.759399 320.236023,193.759399 
	C320.236023,189.339905 320.236023,184.917358 320.236023,180.738434 
	C315.289032,184.321609 310.469391,187.812531 305.321594,191.496704 
M295.867859,169.707825 
	C313.204529,165.677307 320.825928,155.036865 316.977600,139.999359 
	C310.048920,139.999359 303.066437,139.789566 296.103455,140.067841 
	C290.835724,140.278381 285.465515,140.579391 280.369904,141.797714 
	C273.369812,143.471375 270.115540,147.749466 269.822632,153.891968 
	C269.504883,160.554810 272.591339,165.911270 279.375397,167.917084 
	C284.340027,169.384979 289.773041,169.268799 295.867859,169.707825 
z"/>
<path fill="#607B36" opacity="1.000000" stroke="none" 
	d="
M737.968506,194.003708 
	C728.669495,194.003708 719.865967,194.003708 710.553833,194.003708 
	C710.553833,161.546799 710.553833,129.465256 710.553833,96.782265 
	C703.828247,96.782265 697.593872,96.782265 691.035950,96.782265 
	C691.035950,86.765457 691.035950,77.345276 691.035950,67.252533 
	C697.314148,67.252533 703.697144,67.252533 709.925964,67.252533 
	C710.574951,60.808647 710.691833,54.947464 711.820740,49.288143 
	C715.779114,29.443445 729.985107,16.412491 750.089539,14.132462 
	C762.621704,12.711187 775.029053,13.113129 786.664734,18.922663 
	C787.534302,19.356817 788.338745,19.921389 789.584656,20.673584 
	C786.287659,29.813375 783.036438,38.826374 779.681335,48.127373 
	C770.975830,43.668636 762.145691,40.945568 753.604797,46.936119 
	C746.844666,51.677601 747.632751,59.324989 747.778015,67.068970 
	C758.748596,67.068970 769.481812,67.068970 780.474854,67.068970 
	C780.474854,77.047348 780.474854,86.468895 780.474854,96.528305 
	C770.000793,96.528305 759.611084,96.528305 748.726807,96.528305 
	C748.726807,129.218643 748.726807,161.279968 748.726807,194.003708 
	C744.986023,194.003708 741.724976,194.003708 737.968506,194.003708 
z"/>
<path fill="#030303" opacity="1.000000" stroke="none" 
	d="
M107.720535,87.892227 
	C107.720528,90.864693 107.720528,93.354057 107.720528,96.362015 
	C97.112633,96.362015 86.708427,96.362015 76.207520,96.362015 
	C75.898552,97.406868 75.570999,97.999702 75.569939,98.593124 
	C75.540306,115.081909 75.519844,131.570786 75.548447,148.059555 
	C75.577782,164.976837 87.947708,167.511780 99.359650,164.137024 
	C101.707436,163.442749 103.870056,162.122391 106.606537,160.866379 
	C108.325348,165.233780 110.084953,169.612625 111.772667,174.018982 
	C113.481575,178.480682 115.119385,182.969620 116.839890,187.584930 
	C108.475632,193.602203 99.050087,195.409897 89.357140,195.757538 
	C76.900558,196.204300 64.797882,194.696274 54.181641,187.195145 
	C43.739601,179.817078 38.698746,169.288040 38.178017,157.030258 
	C37.408119,138.907104 37.682697,120.739532 37.516937,102.590828 
	C37.500572,100.798973 37.514751,99.006828 37.514751,96.719971 
	C30.851618,96.719971 24.603510,96.719971 18.026953,96.719971 
	C18.026953,86.679771 18.026953,77.133537 18.026953,67.192627 
	C24.379002,67.192627 30.645462,67.192627 37.447746,67.192627 
	C37.447746,56.600071 37.447746,46.384060 37.447746,36.005478 
	C50.281387,36.005478 62.572220,36.005478 75.262115,36.005478 
	C75.262115,46.174961 75.262115,56.262859 75.262115,66.958008 
	C86.162949,66.958008 96.685486,66.958008 107.720535,66.958008 
	C107.720535,74.176628 107.720535,80.792885 107.720535,87.892227 
z"/>
<path fill="#010101" opacity="1.000000" stroke="none" 
	d="
M836.977539,43.000000 
	C836.977539,93.432678 836.977539,143.365356 836.977539,193.648911 
	C824.413757,193.648911 812.023438,193.648911 799.305176,193.648911 
	C799.305176,134.495255 799.305176,75.165680 799.305176,15.556343 
	C811.686951,15.556343 824.076904,15.556343 836.977539,15.556343 
	C836.977539,24.625694 836.977539,33.562847 836.977539,43.000000 
z"/>
<path fill="#020202" opacity="1.000000" stroke="none" 
	d="
M137.978088,170.999969 
	C137.978088,135.228119 137.978088,99.956268 137.978088,64.452126 
	C150.147476,64.452126 161.888367,64.452126 174.118835,64.452126 
	C174.118835,69.473602 174.118835,74.353706 174.118835,79.588760 
	C191.911804,65.792625 204.537521,61.066994 218.408295,62.967896 
	C218.408295,74.304718 218.408295,85.682739 218.408295,97.086143 
	C215.164215,97.086143 212.189529,97.000610 209.221024,97.099907 
	C188.630066,97.788704 176.859894,109.163139 176.198227,129.905060 
	C175.683304,146.047028 176.017578,162.216202 175.980789,178.373276 
	C175.969437,183.355545 175.979034,188.337860 175.979034,193.660126 
	C163.391586,193.660126 150.998962,193.660126 137.978088,193.660126 
	C137.978088,186.353958 137.978088,178.926956 137.978088,170.999969 
z"/>
<path fill="#030303" opacity="1.000000" stroke="none" 
	d="
M1267.113159,56.422649 
	C1259.462158,56.412045 1252.321899,56.412045 1244.936768,56.412045 
	C1244.936768,50.582561 1244.936768,45.128887 1244.936768,39.111382 
	C1252.803711,39.111382 1260.851440,39.111382 1269.407104,39.111382 
	C1269.407104,30.994062 1269.407104,23.423840 1269.407104,15.508545 
	C1275.969849,15.508545 1282.017700,15.508545 1288.517212,15.508545 
	C1288.517212,23.050556 1288.517212,30.644049 1288.517212,38.711044 
	C1297.020020,38.711044 1305.096436,38.711044 1313.470947,38.711044 
	C1313.470947,44.744740 1313.470947,50.308746 1313.470947,56.232723 
	C1305.445801,56.232723 1297.491577,56.232723 1289.049805,56.232723 
	C1289.049805,64.122314 1289.049805,71.684898 1289.049805,79.636536 
	C1282.372314,79.636536 1276.170898,79.636536 1269.491211,79.636536 
	C1269.491211,73.394966 1269.606201,67.095474 1269.406128,60.806007 
	C1269.359131,59.331020 1268.246338,57.889938 1267.113159,56.422649 
z"/>
<path fill="#010101" opacity="1.000000" stroke="none" 
	d="
M1244.692627,96.040245 
	C1244.634155,93.504776 1244.339722,91.794197 1247.612549,91.818352 
	C1269.422241,91.979355 1291.233765,91.901871 1313.406372,91.901871 
	C1313.406372,97.817383 1313.406372,103.540405 1313.406372,109.635666 
	C1290.773193,109.635666 1268.065186,109.635666 1244.692261,109.635666 
	C1244.692261,105.366928 1244.692261,100.950729 1244.692627,96.040245 
z"/>
<path fill="#FFFEFE" opacity="1.000000" stroke="none" 
	d="
M471.173767,100.759842 
	C490.097778,117.599670 487.039551,149.976196 465.772888,161.039581 
	C445.894897,171.380524 421.441711,158.319977 418.945251,136.041962 
	C417.599609,124.033432 419.083466,112.729073 427.763580,103.527870 
	C438.837646,91.788979 457.275787,90.602226 471.173767,100.759842 
z"/>
<path fill="#FDFDFD" opacity="1.000000" stroke="none" 
	d="
M932.976562,164.451111 
	C915.213379,164.614243 903.433960,152.003006 900.677612,137.649460 
	C897.422363,120.698395 903.853882,104.590897 917.503052,97.363297 
	C938.162354,86.423599 962.688354,100.106987 964.807556,123.870277 
	C965.968628,136.890182 963.431946,148.727371 952.796326,157.614883 
	C947.194702,162.295746 940.605164,164.181732 932.976562,164.451111 
z"/>
<path fill="#FEFCF9" opacity="1.000000" stroke="none" 
	d="
M602.001099,117.705292 
	C595.730042,117.705086 589.958557,117.705086 584.228638,117.705086 
	C583.805603,103.989937 597.342957,92.253456 613.867065,91.318863 
	C629.547974,90.431961 643.830627,102.168625 645.350159,117.705505 
	C631.035339,117.705505 616.768005,117.705505 602.001099,117.705292 
z"/>
<path fill="#FCFCFC" opacity="1.000000" stroke="none" 
	d="
M295.432556,169.783249 
	C289.773041,169.268799 284.340027,169.384979 279.375397,167.917084 
	C272.591339,165.911270 269.504883,160.554810 269.822632,153.891968 
	C270.115540,147.749466 273.369812,143.471375 280.369904,141.797714 
	C285.465515,140.579391 290.835724,140.278381 296.103455,140.067841 
	C303.066437,139.789566 310.048920,139.999359 316.977600,139.999359 
	C320.825928,155.036865 313.204529,165.677307 295.432556,169.783249 
z"/>
</svg>