<svg version="1.1" id="Layer_1" xmlns="http://www.w3.org/2000/svg" xmlns:xlink="http://www.w3.org/1999/xlink" x="0px" y="0px"
	 width="100%" viewBox="0 0 1326 204" enable-background="new 0 0 1326 204" xml:space="preserve">
<path fill="#FEFEFE" opacity="1.000000" stroke="none" 
	d="
M1009.000000,205.000000 
	C672.666687,205.000000 336.833344,205.000000 1.000000,205.000000 
	C1.000000,137.000000 1.000000,69.000000 1.000000,1.000000 
	C443.000000,1.000000 885.000000,1.000000 1327.000000,1.000000 
	C1327.000000,69.000000 1327.000000,137.000000 1327.000000,205.000000 
	C1221.166626,205.000000 1115.333374,205.000000 1009.000000,205.000000 
M1099.710327,178.244583 
	C1107.827637,156.491196 1115.944946,134.737808 1124.326172,112.277443 
	C1125.118774,114.350853 1125.609253,115.578133 1126.059570,116.819969 
	C1134.719360,140.705307 1143.331787,164.608109 1152.123779,188.444626 
	C1152.728271,190.083679 1154.634155,192.384628 1155.991455,192.423950 
	C1167.134521,192.746628 1178.290894,192.606033 1189.628052,192.606033 
	C1205.281372,149.405807 1220.854736,106.426285 1236.590332,62.998871 
	C1226.412109,62.998871 1217.082520,63.171261 1207.765381,62.907814 
	C1204.384521,62.812218 1202.975952,63.819946 1201.834229,67.056778 
	C1192.664307,93.051971 1183.260742,118.964722 1173.912231,144.896820 
	C1173.339111,146.486679 1172.628296,148.026901 1171.701172,150.268204 
	C1161.243774,120.558853 1151.111694,91.773499 1141.060059,63.217026 
	C1130.102783,63.217026 1119.655273,63.217026 1109.157349,63.217026 
	C1098.659058,92.132591 1088.224243,120.873444 1077.434570,150.591309 
	C1067.002319,120.724480 1056.937134,91.908676 1046.964966,63.359238 
	C1035.067017,63.359238 1023.544434,63.359238 1011.580383,63.359238 
	C1027.226074,106.737999 1042.704712,149.653183 1058.197754,192.608612 
	C1065.728882,192.608612 1072.890015,192.608612 1080.051147,192.608612 
	C1094.523682,192.608612 1094.523682,192.608612 1099.710327,178.244583 
M378.032715,117.770683 
	C377.973389,123.251167 377.580383,128.751648 377.907257,134.209000 
	C380.644958,179.915329 421.558105,203.082809 461.787659,191.346741 
	C469.278931,189.161346 475.826782,183.742126 482.831055,179.803528 
	C482.831055,183.303711 482.831055,187.691986 482.831055,192.733536 
	C493.084534,192.733536 502.872131,192.500107 512.640259,192.834824 
	C517.323547,192.995316 518.876648,191.771912 518.861328,186.827576 
	C518.688843,131.017868 518.753967,75.207413 518.742798,19.397171 
	C518.742493,17.770840 518.604797,16.144537 518.518677,14.242477 
	C505.974243,14.242477 493.752380,14.242477 480.912567,14.242477 
	C480.912567,34.796326 480.912567,55.120609 480.912567,75.884354 
	C477.414368,73.227470 474.652954,70.837257 471.616486,68.872086 
	C453.453064,57.116745 423.337158,58.755356 404.012970,72.492126 
	C388.701355,83.376534 380.748932,98.583748 378.032715,117.770683 
M907.413269,64.862602 
	C854.264099,81.655540 848.616394,145.858963 881.230896,175.553604 
	C902.107361,194.561203 927.196533,198.359238 953.595703,191.690247 
	C980.221130,184.964066 997.589783,167.706772 1002.289856,140.121887 
	C1006.810852,113.588326 999.233459,90.678795 976.815857,74.601616 
	C955.924744,59.619129 932.500671,58.005005 907.413269,64.862602 
M272.927917,62.342052 
	C259.294434,64.722374 246.198395,68.492493 234.492828,76.830193 
	C239.048859,85.665588 243.427200,94.156380 247.813400,102.662407 
	C250.985138,100.835182 253.603210,99.084053 256.417847,97.746536 
	C270.222687,91.186394 284.586273,88.567459 299.503723,93.095833 
	C310.145966,96.326401 316.539154,106.866936 314.269043,116.429085 
	C305.300537,116.429085 296.277496,115.965469 287.323273,116.552208 
	C277.246429,117.212517 266.992249,117.843559 257.243561,120.234192 
	C240.851059,124.254066 230.833160,136.488571 229.900208,151.316635 
	C228.763748,169.379562 236.737274,183.040771 253.148575,189.797348 
	C268.165710,195.979950 283.773407,196.451889 298.969086,190.930817 
	C304.784119,188.818054 309.603119,183.941147 314.831696,180.260925 
	C315.650116,179.684875 316.231598,178.772186 317.658691,177.208832 
	C317.658691,182.919922 317.658691,187.531219 317.658691,192.160126 
	C329.582642,192.160126 341.087738,192.160126 352.769135,192.160126 
	C352.769135,182.056168 352.853729,172.400879 352.750977,162.747589 
	C352.556091,144.435974 353.110718,126.062431 351.768555,107.831345 
	C350.260742,87.350456 339.477966,72.769409 319.633392,65.701431 
	C304.676788,60.374374 289.309601,60.280499 272.927917,62.342052 
M646.524109,68.894547 
	C631.070984,61.252167 614.852661,59.341423 597.978333,62.458111 
	C564.497620,68.642006 542.345764,96.974960 543.791016,130.083099 
	C544.891785,155.299271 556.102539,174.076035 578.380676,185.561752 
	C599.667419,196.536346 622.236877,196.820953 644.896362,190.349686 
	C654.925598,187.485458 663.667053,182.037476 670.763245,173.386444 
	C664.097900,166.129730 657.635803,159.094284 651.055115,151.929688 
	C649.818481,152.976593 648.919495,153.690277 648.072937,154.461456 
	C633.661865,167.589294 604.038635,167.563461 590.750549,154.829636 
	C586.139221,150.410675 582.583435,145.406204 581.978149,138.152084 
	C584.437988,138.152084 586.405640,138.152100 588.373230,138.152084 
	C617.027771,138.152054 645.682556,138.087677 674.336426,138.226242 
	C678.313599,138.245453 679.873657,137.218460 680.027100,132.981384 
	C681.021973,105.514778 671.735901,83.466354 646.524109,68.894547 
M697.566406,94.893898 
	C701.509216,94.893898 705.452087,94.893898 709.950623,94.893898 
	C709.950623,127.755791 709.950623,159.981232 709.950623,192.374084 
	C722.599731,192.374084 734.669556,192.374084 747.304688,192.374084 
	C747.304688,159.797272 747.304688,127.555115 747.304688,94.893929 
	C749.508789,94.893929 751.146851,94.893997 752.784851,94.893913 
	C760.450439,94.893517 768.119629,95.011269 775.778320,94.780342 
	C777.108765,94.740211 779.501282,93.263504 779.530029,92.388626 
	C779.813782,83.774216 779.701477,75.146759 779.701477,65.953117 
	C773.758850,65.953117 768.311890,65.953117 762.864929,65.953117 
	C757.434204,65.953117 752.003418,65.953117 746.212402,65.953117 
	C746.470154,57.910622 745.524536,50.016487 752.330933,45.097057 
	C760.880798,38.917599 769.927979,41.582355 778.764160,45.684544 
	C781.549683,38.049351 783.972351,30.604145 787.003662,23.415588 
	C788.697693,19.398235 787.356262,17.804750 783.823303,16.354866 
	C774.516541,12.535369 764.832153,11.628170 754.923462,12.068714 
	C730.756104,13.143206 714.325684,27.312931 710.455811,50.751350 
	C709.655396,55.599087 709.832764,60.608269 709.524963,66.166290 
	C702.832642,66.166290 696.442871,66.166290 690.274353,66.166290 
	C690.274353,76.062439 690.274353,85.305016 690.274353,94.893776 
	C692.643799,94.893776 694.618652,94.893776 697.566406,94.893898 
M71.773132,106.509338 
	C71.773132,102.736023 71.773132,98.962708 71.773132,94.813293 
	C82.713570,94.813293 93.134155,94.813293 103.717880,94.813293 
	C103.717880,85.022453 103.717880,75.629097 103.717880,65.866905 
	C93.036621,65.866905 82.608330,65.866905 71.723648,65.866905 
	C71.723648,55.264545 71.723648,45.021347 71.723648,34.533508 
	C59.020283,34.533508 46.782368,34.533508 33.930061,34.533508 
	C33.930061,45.108807 33.930061,55.472298 33.930061,66.099724 
	C27.039398,66.099724 20.759432,66.099724 14.375816,66.099724 
	C14.375816,75.772919 14.375816,85.158577 14.375816,95.017723 
	C21.066320,95.017723 27.463577,95.017723 34.064720,95.017723 
	C34.064720,97.303528 34.062355,99.117859 34.065090,100.932190 
	C34.090202,117.595306 33.827396,134.265106 34.212967,150.919891 
	C34.728142,173.172623 45.831459,188.167374 65.957870,192.415909 
	C74.751274,194.272141 84.153152,194.033630 93.217598,193.564758 
	C100.265015,193.200226 107.171547,190.887909 113.052498,186.113037 
	C109.672554,177.323074 106.355721,168.697266 102.988052,159.939240 
	C101.720207,160.708908 100.909363,161.265930 100.043419,161.717224 
	C84.333817,169.904343 71.805061,162.497345 71.777390,144.998291 
	C71.757629,132.500732 71.773277,120.003113 71.773132,106.509338 
M835.968201,56.500004 
	C835.968201,42.405487 835.968201,28.310968 835.968201,14.184063 
	C823.191589,14.184063 810.950195,14.184063 798.511353,14.184063 
	C798.511353,73.628685 798.511353,132.823669 798.511353,192.236237 
	C811.087097,192.236237 823.431702,192.236237 835.968201,192.236237 
	C835.968201,147.072952 835.968201,102.286484 835.968201,56.500004 
M134.192612,142.499908 
	C134.192612,159.072586 134.192612,175.645264 134.192612,192.323395 
	C147.092545,192.323395 159.334061,192.323395 171.919052,192.323395 
	C171.919052,190.236649 171.917068,188.430893 171.919373,186.625137 
	C171.944366,166.979630 171.721771,147.329758 172.067291,127.689880 
	C172.394730,109.079277 182.646729,97.918800 201.000061,95.712555 
	C205.378693,95.186211 209.874466,95.634476 214.443680,95.634476 
	C214.443680,83.968521 214.443680,72.604881 214.443680,61.026955 
	C197.307190,61.410191 182.075104,65.495270 169.968903,79.843330 
	C169.968903,73.417000 169.968903,68.348785 169.968903,63.326054 
	C157.875946,63.326054 146.163910,63.326054 134.192627,63.326054 
	C134.192627,89.603256 134.192627,115.551567 134.192612,142.499908 
M1297.560547,54.171535 
	C1302.972656,54.171535 1308.384888,54.171535 1313.685303,54.171535 
	C1313.685303,47.974575 1313.685303,42.403191 1313.685303,36.411934 
	C1305.288208,36.411934 1297.213623,36.411934 1288.768555,36.411934 
	C1288.768555,28.391720 1288.768555,20.804501 1288.768555,13.202188 
	C1282.299683,13.202188 1276.220947,13.202188 1269.680786,13.202188 
	C1269.680786,21.008837 1269.680786,28.580688 1269.680786,36.677570 
	C1261.182861,36.677570 1253.132446,36.677570 1245.026001,36.677570 
	C1245.026001,42.770679 1245.026001,48.321503 1245.026001,54.390514 
	C1253.350586,54.390514 1261.401245,54.390514 1269.825195,54.390514 
	C1269.825195,62.481083 1269.825195,70.058693 1269.825195,77.716133 
	C1276.302246,77.716133 1282.374146,77.716133 1289.048340,77.716133 
	C1289.048340,69.774101 1289.048340,62.071327 1289.048340,54.171539 
	C1291.960083,54.171539 1294.271606,54.171539 1297.560547,54.171535 
M1276.500000,107.998718 
	C1288.908203,107.998718 1301.316528,107.998718 1313.771729,107.998718 
	C1313.771729,101.757988 1313.771729,96.022598 1313.771729,90.131531 
	C1290.698975,90.131531 1267.864502,90.131531 1244.970459,90.131531 
	C1244.970459,96.141701 1244.970459,101.875374 1244.970459,107.998718 
	C1255.295288,107.998718 1265.397583,107.998718 1276.500000,107.998718 
z"/>
<path fill="#020202" opacity="1.000000" stroke="none" 
	d="
M1099.526245,178.587555 
	C1094.523682,192.608612 1094.523682,192.608612 1080.051147,192.608612 
	C1072.890015,192.608612 1065.728882,192.608612 1058.197754,192.608612 
	C1042.704712,149.653183 1027.226074,106.737999 1011.580383,63.359238 
	C1023.544434,63.359238 1035.067017,63.359238 1046.964966,63.359238 
	C1056.937134,91.908676 1067.002319,120.724480 1077.434570,150.591309 
	C1088.224243,120.873444 1098.659058,92.132591 1109.157349,63.217026 
	C1119.655273,63.217026 1130.102783,63.217026 1141.060059,63.217026 
	C1151.111694,91.773499 1161.243774,120.558853 1171.701172,150.268204 
	C1172.628296,148.026901 1173.339111,146.486679 1173.912231,144.896820 
	C1183.260742,118.964722 1192.664307,93.051971 1201.834229,67.056778 
	C1202.975952,63.819946 1204.384521,62.812218 1207.765381,62.907814 
	C1217.082520,63.171261 1226.412109,62.998871 1236.590332,62.998871 
	C1220.854736,106.426285 1205.281372,149.405807 1189.628052,192.606033 
	C1178.290894,192.606033 1167.134521,192.746628 1155.991455,192.423950 
	C1154.634155,192.384628 1152.728271,190.083679 1152.123779,188.444626 
	C1143.331787,164.608109 1134.719360,140.705307 1126.059570,116.819969 
	C1125.609253,115.578133 1125.118774,114.350853 1124.326172,112.277443 
	C1115.944946,134.737808 1107.827637,156.491196 1099.526245,178.587555 
z"/>
<path fill="#5F96D3" opacity="1.000000" stroke="none" 
	d="
M378.066925,117.322815 
	C380.748932,98.583748 388.701355,83.376534 404.012970,72.492126 
	C423.337158,58.755356 453.453064,57.116745 471.616486,68.872086 
	C474.652954,70.837257 477.414368,73.227470 480.912567,75.884354 
	C480.912567,55.120609 480.912567,34.796326 480.912567,14.242477 
	C493.752380,14.242477 505.974243,14.242477 518.518677,14.242477 
	C518.604797,16.144537 518.742493,17.770840 518.742798,19.397171 
	C518.753967,75.207413 518.688843,131.017868 518.861328,186.827576 
	C518.876648,191.771912 517.323547,192.995316 512.640259,192.834824 
	C502.872131,192.500107 493.084534,192.733536 482.831055,192.733536 
	C482.831055,187.691986 482.831055,183.303711 482.831055,179.803528 
	C475.826782,183.742126 469.278931,189.161346 461.787659,191.346741 
	C421.558105,203.082809 380.644958,179.915329 377.907257,134.209000 
	C377.580383,128.751648 377.973389,123.251167 378.066925,117.322815 
M417.494019,114.249138 
	C416.965881,120.508217 415.711792,126.805481 416.038757,133.019577 
	C417.273041,156.479050 441.726166,170.695312 462.978760,160.627380 
	C476.916901,154.024506 483.665222,139.309204 481.150757,121.001801 
	C478.983276,105.220604 468.119019,93.981743 453.234741,92.123123 
	C437.121918,90.111107 423.881378,98.099586 417.494019,114.249138 
z"/>
<path fill="#020202" opacity="1.000000" stroke="none" 
	d="
M907.789917,64.726784 
	C932.500671,58.005005 955.924744,59.619129 976.815857,74.601616 
	C999.233459,90.678795 1006.810852,113.588326 1002.289856,140.121887 
	C997.589783,167.706772 980.221130,184.964066 953.595703,191.690247 
	C927.196533,198.359238 902.107361,194.561203 881.230896,175.553604 
	C848.616394,145.858963 854.264099,81.655540 907.789917,64.726784 
M910.166626,155.358932 
	C929.324890,171.049225 956.926453,163.829224 963.433167,140.966583 
	C965.245972,134.596893 965.339600,127.446480 964.817871,120.763847 
	C963.693298,106.358932 953.386169,95.467148 939.336975,92.557701 
	C925.265625,89.643669 911.086792,95.714340 904.147339,107.628532 
	C896.739502,120.346939 897.009460,143.299408 910.166626,155.358932 
z"/>
<path fill="#030303" opacity="1.000000" stroke="none" 
	d="
M273.360779,62.265381 
	C289.309601,60.280499 304.676788,60.374374 319.633392,65.701431 
	C339.477966,72.769409 350.260742,87.350456 351.768555,107.831345 
	C353.110718,126.062431 352.556091,144.435974 352.750977,162.747589 
	C352.853729,172.400879 352.769135,182.056168 352.769135,192.160126 
	C341.087738,192.160126 329.582642,192.160126 317.658691,192.160126 
	C317.658691,187.531219 317.658691,182.919922 317.658691,177.208832 
	C316.231598,178.772186 315.650116,179.684875 314.831696,180.260925 
	C309.603119,183.941147 304.784119,188.818054 298.969086,190.930817 
	C283.773407,196.451889 268.165710,195.979950 253.148575,189.797348 
	C236.737274,183.040771 228.763748,169.379562 229.900208,151.316635 
	C230.833160,136.488571 240.851059,124.254066 257.243561,120.234192 
	C266.992249,117.843559 277.246429,117.212517 287.323273,116.552208 
	C296.277496,115.965469 305.300537,116.429085 314.269043,116.429085 
	C316.539154,106.866936 310.145966,96.326401 299.503723,93.095833 
	C284.586273,88.567459 270.222687,91.186394 256.417847,97.746536 
	C253.603210,99.084053 250.985138,100.835182 247.813400,102.662407 
	C243.427200,94.156380 239.048859,85.665588 234.492828,76.830193 
	C246.198395,68.492493 259.294434,64.722374 273.360779,62.265381 
M315.070282,141.718384 
	C315.406982,139.255936 314.623108,138.172318 311.856110,138.241470 
	C303.889526,138.440582 295.909149,138.173401 287.948029,138.466156 
	C284.007568,138.611053 279.972473,139.161789 276.202545,140.279160 
	C270.276184,142.035690 266.664551,146.192123 266.284576,152.579910 
	C265.912323,158.837982 268.668976,163.423477 274.181519,166.383347 
	C292.959290,176.465759 315.070374,163.637100 315.070282,141.718384 
z"/>
<path fill="#F9DC72" opacity="1.000000" stroke="none" 
	d="
M646.859741,69.049507 
	C671.735901,83.466354 681.021973,105.514778 680.027100,132.981384 
	C679.873657,137.218460 678.313599,138.245453 674.336426,138.226242 
	C645.682556,138.087677 617.027771,138.152054 588.373230,138.152084 
	C586.405640,138.152100 584.437988,138.152084 581.978149,138.152084 
	C582.583435,145.406204 586.139221,150.410675 590.750549,154.829636 
	C604.038635,167.563461 633.661865,167.589294 648.072937,154.461456 
	C648.919495,153.690277 649.818481,152.976593 651.055115,151.929688 
	C657.635803,159.094284 664.097900,166.129730 670.763245,173.386444 
	C663.667053,182.037476 654.925598,187.485458 644.896362,190.349686 
	C622.236877,196.820953 599.667419,196.536346 578.380676,185.561752 
	C556.102539,174.076035 544.891785,155.299271 543.791016,130.083099 
	C542.345764,96.974960 564.497620,68.642006 597.978333,62.458111 
	C614.852661,59.341423 631.070984,61.252167 646.859741,69.049507 
M631.489014,116.192787 
	C635.588074,116.192787 639.687134,116.192787 643.750610,116.192787 
	C644.108826,103.204987 630.915039,90.555817 617.144104,89.903374 
	C596.809387,88.939957 582.690491,99.194328 581.614685,116.193176 
	C597.925720,116.193176 614.208740,116.193176 631.489014,116.192787 
z"/>
<path fill="#E97762" opacity="1.000000" stroke="none" 
	d="
M697.079956,94.893837 
	C694.618652,94.893776 692.643799,94.893776 690.274353,94.893776 
	C690.274353,85.305016 690.274353,76.062439 690.274353,66.166290 
	C696.442871,66.166290 702.832642,66.166290 709.524963,66.166290 
	C709.832764,60.608269 709.655396,55.599087 710.455811,50.751350 
	C714.325684,27.312931 730.756104,13.143206 754.923462,12.068714 
	C764.832153,11.628170 774.516541,12.535369 783.823303,16.354866 
	C787.356262,17.804750 788.697693,19.398235 787.003662,23.415588 
	C783.972351,30.604145 781.549683,38.049351 778.764160,45.684544 
	C769.927979,41.582355 760.880798,38.917599 752.330933,45.097057 
	C745.524536,50.016487 746.470154,57.910622 746.212402,65.953117 
	C752.003418,65.953117 757.434204,65.953117 762.864929,65.953117 
	C768.311890,65.953117 773.758850,65.953117 779.701477,65.953117 
	C779.701477,75.146759 779.813782,83.774216 779.530029,92.388626 
	C779.501282,93.263504 777.108765,94.740211 775.778320,94.780342 
	C768.119629,95.011269 760.450439,94.893517 752.784851,94.893913 
	C751.146851,94.893997 749.508789,94.893929 747.304688,94.893929 
	C747.304688,127.555115 747.304688,159.797272 747.304688,192.374084 
	C734.669556,192.374084 722.599731,192.374084 709.950623,192.374084 
	C709.950623,159.981232 709.950623,127.755791 709.950623,94.893898 
	C705.452087,94.893898 701.509216,94.893898 697.079956,94.893837 
z"/>
<path fill="#030303" opacity="1.000000" stroke="none" 
	d="
M71.773132,107.007431 
	C71.773277,120.003113 71.757629,132.500732 71.777390,144.998291 
	C71.805061,162.497345 84.333817,169.904343 100.043419,161.717224 
	C100.909363,161.265930 101.720207,160.708908 102.988052,159.939240 
	C106.355721,168.697266 109.672554,177.323074 113.052498,186.113037 
	C107.171547,190.887909 100.265015,193.200226 93.217598,193.564758 
	C84.153152,194.033630 74.751274,194.272141 65.957870,192.415909 
	C45.831459,188.167374 34.728142,173.172623 34.212967,150.919891 
	C33.827396,134.265106 34.090202,117.595306 34.065090,100.932190 
	C34.062355,99.117859 34.064720,97.303528 34.064720,95.017723 
	C27.463577,95.017723 21.066320,95.017723 14.375816,95.017723 
	C14.375816,85.158577 14.375816,75.772919 14.375816,66.099724 
	C20.759432,66.099724 27.039398,66.099724 33.930061,66.099724 
	C33.930061,55.472298 33.930061,45.108807 33.930061,34.533508 
	C46.782368,34.533508 59.020283,34.533508 71.723648,34.533508 
	C71.723648,45.021347 71.723648,55.264545 71.723648,65.866905 
	C82.608330,65.866905 93.036621,65.866905 103.717880,65.866905 
	C103.717880,75.629097 103.717880,85.022453 103.717880,94.813293 
	C93.134155,94.813293 82.713570,94.813293 71.773132,94.813293 
	C71.773132,98.962708 71.773132,102.736023 71.773132,107.007431 
z"/>
<path fill="#040404" opacity="1.000000" stroke="none" 
	d="
M835.968201,57.000008 
	C835.968201,102.286484 835.968201,147.072952 835.968201,192.236237 
	C823.431702,192.236237 811.087097,192.236237 798.511353,192.236237 
	C798.511353,132.823669 798.511353,73.628685 798.511353,14.184063 
	C810.950195,14.184063 823.191589,14.184063 835.968201,14.184063 
	C835.968201,28.310968 835.968201,42.405487 835.968201,57.000008 
z"/>
<path fill="#040404" opacity="1.000000" stroke="none" 
	d="
M134.192627,141.999893 
	C134.192627,115.551567 134.192627,89.603256 134.192627,63.326054 
	C146.163910,63.326054 157.875946,63.326054 169.968903,63.326054 
	C169.968903,68.348785 169.968903,73.417000 169.968903,79.843330 
	C182.075104,65.495270 197.307190,61.410191 214.443680,61.026955 
	C214.443680,72.604881 214.443680,83.968521 214.443680,95.634476 
	C209.874466,95.634476 205.378693,95.186211 201.000061,95.712555 
	C182.646729,97.918800 172.394730,109.079277 172.067291,127.689880 
	C171.721771,147.329758 171.944366,166.979630 171.919373,186.625137 
	C171.917068,188.430893 171.919052,190.236649 171.919052,192.323395 
	C159.334061,192.323395 147.092545,192.323395 134.192612,192.323395 
	C134.192612,175.645264 134.192612,159.072586 134.192627,141.999893 
z"/>
<path fill="#010101" opacity="1.000000" stroke="none" 
	d="
M1297.071899,54.171539 
	C1294.271606,54.171539 1291.960083,54.171539 1289.048340,54.171539 
	C1289.048340,62.071327 1289.048340,69.774101 1289.048340,77.716133 
	C1282.374146,77.716133 1276.302246,77.716133 1269.825195,77.716133 
	C1269.825195,70.058693 1269.825195,62.481083 1269.825195,54.390514 
	C1261.401245,54.390514 1253.350586,54.390514 1245.026001,54.390514 
	C1245.026001,48.321503 1245.026001,42.770679 1245.026001,36.677570 
	C1253.132446,36.677570 1261.182861,36.677570 1269.680786,36.677570 
	C1269.680786,28.580688 1269.680786,21.008837 1269.680786,13.202188 
	C1276.220947,13.202188 1282.299683,13.202188 1288.768555,13.202188 
	C1288.768555,20.804501 1288.768555,28.391720 1288.768555,36.411934 
	C1297.213623,36.411934 1305.288208,36.411934 1313.685303,36.411934 
	C1313.685303,42.403191 1313.685303,47.974575 1313.685303,54.171535 
	C1308.384888,54.171535 1302.972656,54.171535 1297.071899,54.171539 
z"/>
<path fill="#000000" opacity="1.000000" stroke="none" 
	d="
M1276.000000,107.998718 
	C1265.397583,107.998718 1255.295288,107.998718 1244.970459,107.998718 
	C1244.970459,101.875374 1244.970459,96.141701 1244.970459,90.131531 
	C1267.864502,90.131531 1290.698975,90.131531 1313.771729,90.131531 
	C1313.771729,96.022598 1313.771729,101.757988 1313.771729,107.998718 
	C1301.316528,107.998718 1288.908203,107.998718 1276.000000,107.998718 
z"/>
<path fill="#FEFEFF" opacity="1.000000" stroke="none" 
	d="
M417.643250,113.877922 
	C423.881378,98.099586 437.121918,90.111107 453.234741,92.123123 
	C468.119019,93.981743 478.983276,105.220604 481.150757,121.001801 
	C483.665222,139.309204 476.916901,154.024506 462.978760,160.627380 
	C441.726166,170.695312 417.273041,156.479050 416.038757,133.019577 
	C415.711792,126.805481 416.965881,120.508217 417.643250,113.877922 
z"/>
<path fill="#FDFDFD" opacity="1.000000" stroke="none" 
	d="
M909.903564,155.114639 
	C897.009460,143.299408 896.739502,120.346939 904.147339,107.628532 
	C911.086792,95.714340 925.265625,89.643669 939.336975,92.557701 
	C953.386169,95.467148 963.693298,106.358932 964.817871,120.763847 
	C965.339600,127.446480 965.245972,134.596893 963.433167,140.966583 
	C956.926453,163.829224 929.324890,171.049225 909.903564,155.114639 
z"/>
<path fill="#FBFBFB" opacity="1.000000" stroke="none" 
	d="
M315.070312,142.187057 
	C315.070374,163.637100 292.959290,176.465759 274.181519,166.383347 
	C268.668976,163.423477 265.912323,158.837982 266.284576,152.579910 
	C266.664551,146.192123 270.276184,142.035690 276.202545,140.279160 
	C279.972473,139.161789 284.007568,138.611053 287.948029,138.466156 
	C295.909149,138.173401 303.889526,138.440582 311.856110,138.241470 
	C314.623108,138.172318 315.406982,139.255936 315.070312,142.187057 
z"/>
<path fill="#FFFFFE" opacity="1.000000" stroke="none" 
	d="
M630.990356,116.192978 
	C614.208740,116.193176 597.925720,116.193176 581.614685,116.193176 
	C582.690491,99.194328 596.809387,88.939957 617.144104,89.903374 
	C630.915039,90.555817 644.108826,103.204987 643.750610,116.192787 
	C639.687134,116.192787 635.588074,116.192787 630.990356,116.192978 
z"/>
</svg>